<svg xmlns="http://www.w3.org/2000/svg" viewBox="0 0 800 600">
  <rect width="800" height="600" fill="#11160f"/>
  <circle cx="400" cy="300" r="250" fill="#9bb87a" opacity="0.06"/>
  <circle cx="400" cy="300" r="232" fill="none" stroke="#c7e0a0" stroke-width="16" opacity="0.85"/>
  <circle cx="400" cy="300" r="216" fill="none" stroke="#e7f3d4" stroke-width="6" opacity="0.5"/>
  <circle cx="400" cy="300" r="208" fill="#9bb87a" opacity="0.13"/>
  <g stroke="#cfe6ab" stroke-width="2.5" opacity="0.55" stroke-linecap="round">
    <line x1="418" y1="300" x2="605" y2="300"/>
    <line x1="415" y1="311" x2="566" y2="420"/>
    <line x1="406" y1="317" x2="463" y2="495"/>
    <line x1="394" y1="317" x2="337" y2="495"/>
    <line x1="385" y1="311" x2="234" y2="420"/>
    <line x1="382" y1="300" x2="195" y2="300"/>
    <line x1="385" y1="289" x2="234" y2="180"/>
    <line x1="394" y1="283" x2="337" y2="105"/>
    <line x1="406" y1="283" x2="463" y2="105"/>
    <line x1="415" y1="289" x2="566" y2="180"/>
  </g>
  <g fill="#e7f3d4" opacity="0.5">
    <ellipse cx="500" cy="300" rx="9" ry="5"/>
    <ellipse cx="455" cy="380" rx="9" ry="5" transform="rotate(40 455 380)"/>
    <ellipse cx="345" cy="380" rx="9" ry="5" transform="rotate(-40 345 380)"/>
    <ellipse cx="300" cy="300" rx="9" ry="5"/>
    <ellipse cx="345" cy="220" rx="9" ry="5" transform="rotate(40 345 220)"/>
    <ellipse cx="455" cy="220" rx="9" ry="5" transform="rotate(-40 455 220)"/>
  </g>
  <circle cx="400" cy="300" r="16" fill="#cfe6ab" opacity="0.6"/>
</svg>
